<svg xmlns="http://www.w3.org/2000/svg" width="82.973" height="80.988" viewBox="0 0 82.973 80.988">
  <g id="cro" transform="translate(-0.002 -63.85)">
    <path id="Path_244" data-name="Path 244" d="M191.07,813.265a5.212,5.212,0,0,0-5.215-5.215H126.115a5.215,5.215,0,0,0,0,10.429h59.741A5.218,5.218,0,0,0,191.07,813.265Z" transform="translate(-114.436 -673.641)"/>
    <path id="Path_245" data-name="Path 245" d="M5.528,99.436a1.608,1.608,0,0,0,.22-.01l7.369,31.726H69.86l7.369-31.726c.076,0,.144.01.22.01,3.051,0,5.526-2.945,5.526-6.574s-2.476-6.574-5.526-6.574-5.526,2.945-5.526,6.574a7.515,7.515,0,0,0,.27,2.021l-13.326,9.268L44.543,75.9a6.979,6.979,0,0,0,2.476-5.479c0-3.629-2.476-6.574-5.526-6.574s-5.526,2.945-5.526,6.574A6.938,6.938,0,0,0,38.442,75.9L24.119,104.151,10.793,94.882a7.864,7.864,0,0,0,.27-2.021c0-3.629-2.476-6.574-5.526-6.574S0,89.233,0,92.862,2.478,99.436,5.528,99.436Z"/>
  </g>
</svg>
