<svg xmlns="http://www.w3.org/2000/svg" width="474.279" height="391.244" viewBox="0 0 474.279 391.244"><g transform="translate(49.139 -81.378)"><ellipse cx="207" cy="150" rx="207" ry="150" transform="translate(352.563 472.622) rotate(-166)" fill="#f8f8f8"/><g transform="translate(23 118.54)"><path d="M0,.29H328.29V221.569H0Z" transform="translate(0 -0.29)" fill="#f3f3f3" fill-rule="evenodd"/><path d="M454.16,112.56h38.492" transform="translate(-268.187 -66.587)" fill="none" stroke="#fff" stroke-linecap="round" stroke-linejoin="round" stroke-width="12.98"/><path d="M454.16,143.29h34.274" transform="translate(-268.187 -84.733)" fill="none" stroke="#fff" stroke-linecap="round" stroke-linejoin="round" stroke-width="12.98"/><path d="M37.15,115H88.107" transform="translate(-21.938 -68.028)" fill="none" stroke="#fff" stroke-linecap="round" stroke-linejoin="round" stroke-width="12.98"/><path d="M37.15,169.71H75.642" transform="translate(-21.938 -100.335)" fill="none" stroke="#fff" stroke-linecap="round" stroke-linejoin="round" stroke-width="12.98"/><path d="M37.15,263.7H58.013" transform="translate(-21.938 -155.837)" fill="none" stroke="#fff" stroke-linecap="round" stroke-linejoin="round" stroke-width="12.98"/><path d="M37.15,299.16H75.642" transform="translate(-21.938 -176.777)" fill="none" stroke="#fff" stroke-linecap="round" stroke-linejoin="round" stroke-width="12.98"/><path d="M37.15,329.89H71.424" transform="translate(-21.938 -194.923)" fill="none" stroke="#fff" stroke-linecap="round" stroke-linejoin="round" stroke-width="12.98"/><path d="M634.81,110.64h50.957" transform="translate(-374.863 -65.453)" fill="none" stroke="#fff" stroke-linecap="round" stroke-linejoin="round" stroke-width="12.98"/><path d="M634.81,144.73h35.625" transform="translate(-374.863 -85.584)" fill="none" stroke="#fff" stroke-linecap="round" stroke-linejoin="round" stroke-width="12.98"/><path d="M634.81,181h47.853" transform="translate(-374.863 -107.002)" fill="none" stroke="#fff" stroke-linecap="round" stroke-linejoin="round" stroke-width="12.98"/><path d="M634.81,214h24.119" transform="translate(-374.863 -126.488)" fill="none" stroke="#fff" stroke-linecap="round" stroke-linejoin="round" stroke-width="12.98"/><path d="M200.09,222.745V1.47" transform="translate(46.266 -0.987)" fill="none" stroke="#dfdfdf" stroke-linecap="round" stroke-width="2.93"/><path d="M400.18,222.745V1.47" transform="translate(-235.759 -0.987)" fill="none" stroke="#dfdfdf" stroke-linecap="round" stroke-width="2.93"/><path d="M600.27,222.745V1.47" transform="translate(-517.783 -0.987)" fill="none" stroke="#dfdfdf" stroke-linecap="round" stroke-width="2.93"/><path d="M358.576,742.359l-.725,8.509-7.461.18,1.384-9.009Z" transform="translate(-173.766 -438.303)" fill="#e49d75" fill-rule="evenodd"/><path d="M182.251,705.77l3.464,11.695-3.538,3.685L175.9,710.913Z" transform="translate(70.546 -416.885)" fill="#e49d75" fill-rule="evenodd"/><path d="M368.223,758.8l.135,6.306-19.557-.119a23.41,23.41,0,0,1-.037-3.092L360.4,758.71Z" transform="translate(-182.869 -448.147)" fill-rule="evenodd"/><path d="M177.728,729.44l3.972,5.417-8.3,11.76-7.846.053.106-3.972,3.145-1.392,2.789-6.916Z" transform="translate(78.799 -430.862)" fill-rule="evenodd"/><path d="M405.255,146.61H367.05v38.205h38.205Z" transform="translate(-227.267 -86.694)" fill="#e0e0e0" fill-rule="evenodd"/><path d="M405.255,146.61H367.05v8.534h38.205Z" transform="translate(-227.267 -86.694)" fill="#333" fill-rule="evenodd"/><path d="M306.315,214.67c-1.99-.438-9.074-.25-10.97-1.265s-25.3-18.55-27.653-20.937-5.266-4.459-7.371-7.055-.07,4.6,1.769,6.015c.213,1.925.266,5.954.266,5.954a3.509,3.509,0,0,1,2.78.7c1.327,1.04,20.515,23.623,20.515,23.623S308.3,215.113,306.315,214.67Z" transform="translate(-84.381 -109.277)" fill="#e49d75" fill-rule="evenodd"/><path d="M213.106,422.356c1.188,4.5,3.477,36.035-3.563,51.808,3.055,11.535,18.57,65.293,18.57,65.293l-7.715,6.8L180.63,486.06S188.91,420.21,213.106,422.356Z" transform="translate(26.21 -249.495)" fill="#5fc5d1" fill-rule="evenodd"/><path d="M245.862,415c-1.609,4.476-18.054,63.2-18.054,63.2l-3.718,71.329,8.509.672,26.432-71.824c3.227-3.657,23.726-52.738,24.647-59.036C279.649,415.056,247.472,410.523,245.862,415Z" transform="translate(-47.151 -244.091)" fill="#6bd5e1" fill-rule="evenodd"/><path d="M241.594,250.72c-3.239,0-21.584,4.447-25.032,11.613-1.9,3.939-10.213,52.1-5.594,59.67s36.444,7.248,42.652,1.54C257.113,320.341,258.239,250.7,241.594,250.72Z" transform="translate(-13.292 -148.172)" fill="#ffd98e" fill-rule="evenodd"/><path d="M328.29.29H0V29.912H328.29Z" transform="translate(0 -0.29)" fill="#e0e0e0" fill-rule="evenodd"/><path d="M241.287,230.7H234.26v13.636c2.527,2.011,7.027,0,7.027,0Z" transform="translate(-8.923 -136.35)" fill="#e49d75" fill-rule="evenodd"/><path d="M238.087,178.414c0-8.5-5.77-15.384-12.891-15.384s-12.887,6.888-12.887,15.384S218.08,193.8,225.2,193.8,238.087,186.911,238.087,178.414Z" transform="translate(3.265 -96.39)" fill="#e49d75" fill-rule="evenodd"/><path d="M177.453,156.846c-4.128-.094-9.373,2.531-9.373,4.353,0,3.153,4.889,10.3,8.53,13.235-1.02,2.355-1.953,3.911-1.953,5.909s3.108,9.828,3.108,15.151c0,4.177-.934,7.019-.934,10.483,0,9.463,6.175,15.192,15.106,15.192s14.93-9.684,14.967-17.547c.045-9.639-10.647-21.469-13.239-28.738C191.482,168.75,187.35,156.846,177.453,156.846Z" transform="translate(52.56 -92.737)" fill="#fd8369" fill-rule="evenodd"/><path d="M239.793,197.887a3.223,3.223,0,1,0-.942,2.281,3.227,3.227,0,0,0,.942-2.281Z" transform="translate(-7.053 -115.068)" fill="#e49d75" fill-rule="evenodd"/><path d="M378.774,248.317c-3.62.86-18.447,3.346-21.293,2.457s-32.165-28.848-34.45-30.916-6.871-5-7.424-8.575,0-6.642,4.971-8.435c-.094,2.31-.184,5.913-.086,5.377.839-2.785.938-5.942,2.457-5.9.819,2.6-.336,7.514,1.679,10.8,2.314,2.514,33.042,22.677,36.268,23.7,4.21,0,15-3.685,15-3.685S382.39,247.457,378.774,248.317Z" transform="translate(-180.746 -119.591)" fill="#e49d75" fill-rule="evenodd"/><path d="M287.378,270.525c-2.506-10.524-24.491-4.959-28.189-2.007-1.294,4.009.741,15.9,3.972,18.108C268.013,287.331,290.048,281.721,287.378,270.525Z" transform="translate(-65.284 -156.242)" fill="#ffe4ad" fill-rule="evenodd"/><path d="M392.677,186h-.049l-2.563,1.355-.385-1.507,3.2-1.712h1.687v14.643h-1.892Z" transform="translate(-240.7 -108.856)" fill="#a4a4a4"/><path d="M424.568,184.18v1.306l-6.38,13.337h-2.047l6.351-12.956v-.045H415.33v-1.638Z" transform="translate(-255.847 -108.879)" fill="#a4a4a4"/></g></g></svg>