<svg xmlns="http://www.w3.org/2000/svg" width="457.521" height="580.252" viewBox="0 0 457.521 580.252"><g transform="translate(41.521 -92.003)"><g transform="translate(-31.519 92.023)" opacity="0.5"><g transform="translate(-0.002 -0.02)"><path d="M405.8,95.644c34.1,42.171,56.148,88.433,50.964,129.64-5.061,41.084-37.332,77.23-71.447,127.348-34.1,50.241-70.236,114.582-122.287,130.6-52.169,16.022-120.242-16.146-173.857-66.386S-3.6,298.536.26,234.2,50.865,109.38,104.467,67.215,218.574,1.161,271.947,8.325,371.582,53.48,405.8,95.644Z" transform="translate(-9.998 -2.451)" fill="#f2f2f2"/><path d="M385.441,298.27c-9.613-7.5-11.984.879-13.488,5.862s-1.394,13.768,6.142,13.579c6.6,5.92,12.752-1.745,14.641-5.64S399.261,299.729,385.441,298.27Z" transform="translate(-129.435 -102.954)" fill="#ff8364" fill-rule="evenodd"/><path d="M399.493,291.67c-3.315,1.166-5.178,2.755-6.233,5.516" transform="translate(-137.131 -101.694)" fill="none" stroke="#ffd98e" stroke-linecap="round" stroke-linejoin="round" stroke-width="2.83"/><path d="M296.82,362.2a11.163,11.163,0,1,1,3.281,7.9A11.163,11.163,0,0,1,296.82,362.2Z" transform="translate(-103.501 -122.393)" fill="#6bd5e1" fill-rule="evenodd"/><path d="M178.13,371.538l30.917-7.848,12.524,49.355-30.91,7.816Z" transform="translate(-62.114 -126.808)" fill="#dfdfdf" fill-rule="evenodd"/><path d="M188.13,381.2l21.271-5.4,1.641,6.467-21.271,5.386Z" transform="translate(-65.601 -131.031)" fill="#ff8364" fill-rule="evenodd"/><path d="M193.39,401.909l21.271-5.4" transform="translate(-67.435 -138.252)" fill="none" stroke="#6bd5e1" stroke-linecap="round" stroke-linejoin="round" stroke-width="3.11"/><path d="M196.13,412.689l21.278-5.4" transform="translate(-68.39 -142.011)" fill="none" stroke="#6bd5e1" stroke-linecap="round" stroke-linejoin="round" stroke-width="3.11"/><path d="M199,423.936l21.291-5.406" transform="translate(-69.391 -145.931)" fill="none" stroke="#6bd5e1" stroke-linecap="round" stroke-linejoin="round" stroke-width="3.11"/><path d="M201.74,436.563l8.35-2.123" transform="translate(-70.347 -151.479)" fill="none" stroke="#6bd5e1" stroke-linecap="round" stroke-linejoin="round" stroke-width="3.11"/><path d="M229.29,430.247l3.348-.847" transform="translate(-79.953 -149.721)" fill="none" stroke="#6bd5e1" stroke-linecap="round" stroke-linejoin="round" stroke-width="3.11"/><path d="M146.66,183.284l80.005-38.094,25,52.5-80.005,38.1Z" transform="translate(-51.14 -50.616)" fill="#dfdfdf" fill-rule="evenodd"/><path d="M189.14,230.539l7.959-23.3,14.83,2.8,5.823-28.729L232.08,183.7l4.168-20.268" transform="translate(-65.953 -56.976)" fill="none" stroke="#ff8364" stroke-linecap="round" stroke-linejoin="round" stroke-width="3.11"/><path d="M196.837,229.847a4.123,4.123,0,1,1,2.346,2.119A4.123,4.123,0,0,1,196.837,229.847Z" transform="translate(-68.498 -78.082)" fill="#ffd98e" fill-rule="evenodd"/><path d="M227.435,191.459a4.123,4.123,0,1,1,2.346,2.119,4.129,4.129,0,0,1-2.346-2.119Z" transform="translate(-79.166 -64.691)" fill="#ffd98e" fill-rule="evenodd"/><path d="M460.34,255.033a14.133,14.133,0,1,1,14.107,14.133,14.133,14.133,0,0,1-14.107-14.133Z" transform="translate(-160.522 -83.99)" fill="#ffd98e" fill-rule="evenodd"/><path d="M508.6,258.81a16.272,16.272,0,0,1-18.8,20.379" transform="translate(-170.795 -90.235)" fill="none" stroke="#ff8364" stroke-linecap="round" stroke-linejoin="round" stroke-width="3.11"/><path d="M465.979,279.08,460.56,288.8l22.372,3.6-2.449-11.32" transform="translate(-160.598 -97.304)" fill="#ffd98e" fill-rule="evenodd"/><path d="M476.92,260.815a3.335,3.335,0,1,1,3.335,3.335A3.335,3.335,0,0,1,476.92,260.815Z" transform="translate(-166.303 -89.772)" fill="#1b3c87" fill-rule="evenodd"/><path d="M512.17,255.695a3.335,3.335,0,1,1,3.335,3.335A3.335,3.335,0,0,1,512.17,255.695Z" transform="translate(-178.595 -87.986)" fill="#ffd98e" fill-rule="evenodd"/><path d="M89.891,99.47l20.9,5.647-20.581,76.2-20.9-5.627Z" transform="translate(-24.167 -34.673)" fill="#ff8364" fill-rule="evenodd"/><path d="M79.51,178.73l11.508,3.113" transform="translate(-27.724 -62.311)" fill="none" stroke="#ffd98e" stroke-linecap="round" stroke-linejoin="round" stroke-width="4.23"/><path d="M73.9,199.49,85.415,202.6" transform="translate(-25.768 -69.55)" fill="none" stroke="#ffd98e" stroke-linecap="round" stroke-linejoin="round" stroke-width="4.23"/><path d="M85.11,158l11.515,3.113" transform="translate(-29.677 -55.082)" fill="none" stroke="#ffd98e" stroke-linecap="round" stroke-linejoin="round" stroke-width="4.23"/><path d="M90.72,137.23l11.508,3.107" transform="translate(-31.633 -47.84)" fill="none" stroke="#ffd98e" stroke-linecap="round" stroke-linejoin="round" stroke-width="4.23"/><path d="M96.32,116.48l11.515,3.107" transform="translate(-33.586 -40.604)" fill="none" stroke="#ffd98e" stroke-linecap="round" stroke-linejoin="round" stroke-width="4.23"/><path d="M424.473,75.21l78.917,19.05-13.026,53.81L411.48,129.013Z" transform="translate(-143.484 -26.213)" fill="#dfdfdf" fill-rule="evenodd"/><path d="M503.772,161.294a8.506,8.506,0,1,1,6.272,10.264,8.506,8.506,0,0,1-6.272-10.264Z" transform="translate(-175.583 -53.96)" fill="#ff8364" fill-rule="evenodd"/><path d="M504.723,175.53l-5.673,14.791,7.92-1.791,5.087,4.722,1.023-16.113" transform="translate(-174.02 -61.195)" fill="#ff8364" fill-rule="evenodd"/><path d="M438.59,96.64l62.3,15.045" transform="translate(-152.937 -33.686)" fill="none" stroke="#6bd5e1" stroke-linecap="round" stroke-linejoin="round" stroke-width="3.11"/><path d="M433.05,119.31l37.625,9.086" transform="translate(-151.006 -41.591)" fill="none" stroke="#6bd5e1" stroke-linecap="round" stroke-linejoin="round" stroke-width="3.11"/><path d="M234.607,78.617,226.14,69.44l12.179-2.755L250.5,63.93,246.8,75.862l-3.706,11.925Z" transform="translate(-78.855 -22.28)" fill="#6bd5e1" fill-rule="evenodd"/><path d="M491.22,371.112l-11.6,4.637,1.778-12.375L483.176,351l9.815,7.718,9.822,7.724Z" transform="translate(-167.245 -122.383)" fill="#ffd98e" fill-rule="evenodd"/><path d="M351.24,149.757a6.057,6.057,0,1,1,6.057,6.057A6.057,6.057,0,0,1,351.24,149.757Z" transform="translate(-122.478 -50.096)" fill="none" stroke="#ff8364" stroke-linecap="round" stroke-linejoin="round" stroke-width="3.11"/><path d="M91.4,305.557a6.057,6.057,0,1,1,6.057,6.057A6.057,6.057,0,0,1,91.4,305.557Z" transform="translate(-31.87 -104.424)" fill="#ffd98e" fill-rule="evenodd"/><path d="M426.07,11.15a11.163,11.163,0,1,1,11.159,11.157A11.163,11.163,0,0,1,426.07,11.15Z" transform="translate(-148.572 0.02)" fill="#ffd98e" fill-rule="evenodd"/><path d="M130.62,461.981A10.421,10.421,0,1,1,141.041,472.4,10.421,10.421,0,0,1,130.62,461.981Z" transform="translate(-45.547 -157.448)" fill="none" stroke="#6bd5e1" stroke-linecap="round" stroke-linejoin="round" stroke-width="3.11"/><path d="M485.13,457.57a6.057,6.057,0,1,1,1.776,4.285A6.064,6.064,0,0,1,485.13,457.57Z" transform="translate(-169.166 -157.428)" fill="none" stroke="#ff8364" stroke-linecap="round" stroke-linejoin="round" stroke-width="3.11"/><path d="M385.441,299.019c-9.613-7.5-11.984.879-13.488,5.862s-1.394,13.768,6.142,13.58c6.6,5.927,12.752-1.739,14.641-5.634S399.261,300.478,385.441,299.019Z" transform="translate(-129.435 -103.214)" fill="#ff8364" fill-rule="evenodd"/><path d="M399.493,292.41c-3.315,1.166-5.178,2.755-6.233,5.516" transform="translate(-137.131 -101.952)" fill="none" stroke="#ffd98e" stroke-linecap="round" stroke-linejoin="round" stroke-width="2.83"/><path d="M296.82,362.94a11.157,11.157,0,1,1,3.279,7.9A11.163,11.163,0,0,1,296.82,362.94Z" transform="translate(-103.501 -122.651)" fill="#6bd5e1" fill-rule="evenodd"/><path d="M178.13,372.278l30.917-7.848,12.524,49.355-30.91,7.848Z" transform="translate(-62.114 -127.066)" fill="#dfdfdf" fill-rule="evenodd"/><path d="M188.13,381.939l21.271-5.4,1.641,6.467-21.271,5.4Z" transform="translate(-65.601 -131.289)" fill="#ff8364" fill-rule="evenodd"/><path d="M193.39,402.656l21.271-5.406" transform="translate(-67.435 -138.51)" fill="none" stroke="#6bd5e1" stroke-linecap="round" stroke-linejoin="round" stroke-width="3.11"/><path d="M196.13,413.425,217.408,408" transform="translate(-68.39 -142.259)" fill="none" stroke="#6bd5e1" stroke-linecap="round" stroke-linejoin="round" stroke-width="3.11"/><path d="M199,424.676l21.291-5.406" transform="translate(-69.391 -146.189)" fill="none" stroke="#6bd5e1" stroke-linecap="round" stroke-linejoin="round" stroke-width="3.11"/><path d="M201.74,437.307l8.35-2.117" transform="translate(-70.347 -151.74)" fill="none" stroke="#6bd5e1" stroke-linecap="round" stroke-linejoin="round" stroke-width="3.11"/><path d="M229.29,430.987l3.348-.847" transform="translate(-79.953 -149.979)" fill="none" stroke="#6bd5e1" stroke-linecap="round" stroke-linejoin="round" stroke-width="3.11"/><path d="M146.66,184.031l80.005-38.1,25,52.507-80.005,38.068Z" transform="translate(-51.14 -50.874)" fill="#dfdfdf" fill-rule="evenodd"/><path d="M189.14,231.265l7.959-23.29,14.83,2.762,5.823-28.729,14.328,2.384,4.168-20.262" transform="translate(-65.953 -57.22)" fill="none" stroke="#ff8364" stroke-linecap="round" stroke-linejoin="round" stroke-width="3.11"/><path d="M196.835,230.629a4.129,4.129,0,1,1,5.5,1.954,4.129,4.129,0,0,1-5.5-1.954Z" transform="translate(-68.496 -78.35)" fill="#ffd98e" fill-rule="evenodd"/><path d="M227.435,192.2a4.123,4.123,0,1,1,2.346,2.119,4.129,4.129,0,0,1-2.346-2.119Z" transform="translate(-79.166 -64.949)" fill="#ffd98e" fill-rule="evenodd"/><path d="M460.34,255.759a14.133,14.133,0,1,1,14.107,14.107A14.133,14.133,0,0,1,460.34,255.759Z" transform="translate(-160.522 -84.234)" fill="#ffd98e" fill-rule="evenodd"/><path d="M508.6,259.56a16.022,16.022,0,0,1,.612,4.429,16.25,16.25,0,0,1-19.422,15.944" transform="translate(-170.791 -90.497)" fill="none" stroke="#ff8364" stroke-linecap="round" stroke-linejoin="round" stroke-width="3.11"/><path d="M465.979,279.82l-5.419,9.7,22.372,3.6-2.449-11.326" transform="translate(-160.598 -97.562)" fill="#ffd98e" fill-rule="evenodd"/><path d="M476.92,261.555a3.335,3.335,0,1,1,3.335,3.335A3.335,3.335,0,0,1,476.92,261.555Z" transform="translate(-166.303 -90.03)" fill="#1b3c87" fill-rule="evenodd"/><path d="M512.17,256.435a3.335,3.335,0,1,1,3.335,3.335,3.335,3.335,0,0,1-3.335-3.335Z" transform="translate(-178.595 -88.244)" fill="#ffd98e" fill-rule="evenodd"/><path d="M89.88,100.21l20.9,5.653L90.2,182.065l-20.92-5.647Z" transform="translate(-24.157 -34.931)" fill="#ff8364" fill-rule="evenodd"/><path d="M79.51,179.48l11.508,3.107" transform="translate(-27.724 -62.573)" fill="none" stroke="#ffd98e" stroke-linecap="round" stroke-linejoin="round" stroke-width="4.23"/><path d="M73.9,200.23l11.515,3.107" transform="translate(-25.768 -69.808)" fill="none" stroke="#ffd98e" stroke-linecap="round" stroke-linejoin="round" stroke-width="4.23"/><path d="M85.11,158.73l11.515,3.107" transform="translate(-29.677 -55.337)" fill="none" stroke="#ffd98e" stroke-linecap="round" stroke-linejoin="round" stroke-width="4.23"/><path d="M90.72,138l11.508,3.107" transform="translate(-31.633 -48.108)" fill="none" stroke="#ffd98e" stroke-linecap="round" stroke-linejoin="round" stroke-width="4.23"/><path d="M96.32,117.22l11.515,3.113" transform="translate(-33.586 -40.862)" fill="none" stroke="#ffd98e" stroke-linecap="round" stroke-linejoin="round" stroke-width="4.23"/><path d="M424.473,76l78.917,19.024-13.026,53.8L411.48,129.771Z" transform="translate(-143.484 -26.489)" fill="#dfdfdf" fill-rule="evenodd"/><path d="M503.772,162.034a8.506,8.506,0,1,1,6.272,10.264,8.506,8.506,0,0,1-6.272-10.264Z" transform="translate(-175.583 -54.218)" fill="#ff8364" fill-rule="evenodd"/><path d="M504.723,176.28l-5.673,14.8,7.92-1.8L512.056,194l1.022-16.12" transform="translate(-174.02 -61.457)" fill="#ff8364" fill-rule="evenodd"/><path d="M438.59,97.39l62.3,15.045" transform="translate(-152.937 -33.947)" fill="none" stroke="#6bd5e1" stroke-linecap="round" stroke-linejoin="round" stroke-width="3.11"/><path d="M433.05,120.06l37.625,9.079" transform="translate(-151.006 -41.853)" fill="none" stroke="#6bd5e1" stroke-linecap="round" stroke-linejoin="round" stroke-width="3.11"/><path d="M234.607,79.36l-8.467-9.17,12.179-2.755L250.5,64.68l-3.712,11.932-3.706,11.932Z" transform="translate(-78.855 -22.541)" fill="#6bd5e1" fill-rule="evenodd"/><path d="M491.22,371.855l-11.6,4.644,1.778-12.375,1.778-12.375,9.815,7.718,9.822,7.718Z" transform="translate(-167.245 -122.644)" fill="#ffd98e" fill-rule="evenodd"/><path d="M351.24,150.517a6.057,6.057,0,1,1,6.057,6.057A6.057,6.057,0,0,1,351.24,150.517Z" transform="translate(-122.478 -50.361)" fill="none" stroke="#ff8364" stroke-linecap="round" stroke-linejoin="round" stroke-width="3.11"/><path d="M91.4,306.3a6.057,6.057,0,1,1,6.057,6.057A6.057,6.057,0,0,1,91.4,306.3Z" transform="translate(-31.87 -104.682)" fill="#ffd98e" fill-rule="evenodd"/><path d="M426.07,11.9a11.163,11.163,0,1,1,11.157,11.15A11.163,11.163,0,0,1,426.07,11.9Z" transform="translate(-148.572 -0.238)" fill="#ffd98e" fill-rule="evenodd"/><path d="M130.62,462.721a10.421,10.421,0,1,1,10.421,10.421A10.421,10.421,0,0,1,130.62,462.721Z" transform="translate(-45.547 -157.706)" fill="none" stroke="#6bd5e1" stroke-linecap="round" stroke-linejoin="round" stroke-width="3.11"/><path d="M485.13,458.31a6.057,6.057,0,1,1,1.776,4.285,6.064,6.064,0,0,1-1.776-4.285Z" transform="translate(-169.166 -157.686)" fill="none" stroke="#ff8364" stroke-linecap="round" stroke-linejoin="round" stroke-width="3.11"/></g></g><g transform="translate(-10.569 132.649)"><g transform="translate(73.502 282.303)"><path d="M287.574,433.46c30.28,0,46.541,20.232,49.564,40.777,3.073,21.016-.432,38.416.443,63.823.594,17.108,8.125,28.536,12.953,43.788s-124.024,19.1-123.256,4.833,9.987-28.878,10.318-46.648c.336-18.117-2.243-28.99-1.89-58.463C235.969,458.306,257.283,433.46,287.574,433.46Z" transform="translate(-163.115 -433.46)" fill-rule="evenodd"/><path d="M112.987,788.483c-1.161-14.321,5.226-65.394,24.97-103.529,73.743-40.839,166.265-21.387,202.848,0,12.387,12.583,21.342,96.178,18.633,102.178" transform="translate(-112.856 -533.442)" fill="#ffd98e" fill-rule="evenodd"/><path d="M189,856.01c1.161-9.291,3-24.263,6-38.13" transform="translate(-146.303 -602.32)" fill="none" stroke="#ff8364" stroke-linecap="round" stroke-linejoin="round" stroke-width="5.73"/><path d="M475.97,856.01c-1.161-9.291-3-24.263-6-38.13" transform="translate(-269.722 -602.32)" fill="none" stroke="#ff8364" stroke-linecap="round" stroke-linejoin="round" stroke-width="5.73"/><path d="M251.34,545.289a8.2,8.2,0,1,1,2.411,5.8,8.2,8.2,0,0,1-2.411-5.8Z" transform="translate(-173.686 -478.976)" fill="#d18c65" fill-rule="evenodd"/><path d="M385.5,545.289a8.2,8.2,0,1,1,8.2,8.2,8.2,8.2,0,0,1-8.2-8.2Z" transform="translate(-232.617 -478.976)" fill="#d18c65" fill-rule="evenodd"/><path d="M301.81,606.75h34.872s.163,36.028,0,50.2c0,5.848-34.861,5.181-34.861,0Z" transform="translate(-195.856 -509.579)" fill="#d18c65" fill-rule="evenodd"/><path d="M270,507.364c0-26.759,16.261-48.454,36.353-48.454s36.358,21.7,36.358,48.454-16.261,48.459-36.358,48.459S270,534.128,270,507.364Z" transform="translate(-181.883 -444.639)" fill="#e49d75" fill-rule="evenodd"/><path d="M319.809,449.28c-9.235,21.46-47.5,42.409-63.616,47.31C253.647,483.777,270.139,429.2,319.809,449.28Z" transform="translate(-175.708 -438.481)" fill-rule="evenodd"/><path d="M332.369,451.53c-6.992,2.664,15.74,39.022,42.981,47.971C386.469,483.672,360.832,450.773,332.369,451.53Z" transform="translate(-208.718 -441.392)" fill-rule="evenodd"/><path d="M287.574,434.2c30.28,0,46.541,20.237,49.564,40.783,3.073,21.011-.432,38.411.443,63.818.594,17.114,8.125,28.536,12.953,43.794s-124.024,19.1-123.256,4.828,9.987-28.878,10.318-46.648c.336-18.112-2.243-28.99-1.89-58.457C235.969,459.046,257.283,434.2,287.574,434.2Z" transform="translate(-163.115 -433.785)" fill-rule="evenodd"/><path d="M112.987,789.2c-1.161-14.321,5.226-65.394,24.97-103.524,73.743-40.839,166.265-21.392,202.848,0,12.387,12.583,21.342,96.173,18.633,102.172" transform="translate(-112.856 -533.757)" fill="#ffd98e" fill-rule="evenodd"/><path d="M189,856.75c1.161-9.291,3-24.263,6-38.13" transform="translate(-146.303 -602.645)" fill="none" stroke="#ff8364" stroke-linecap="round" stroke-linejoin="round" stroke-width="5.73"/><path d="M475.97,856.75c-1.161-9.291-3-24.263-6-38.13" transform="translate(-269.722 -602.645)" fill="none" stroke="#ff8364" stroke-linecap="round" stroke-linejoin="round" stroke-width="5.73"/><path d="M251.34,546.029a8.2,8.2,0,1,1,2.411,5.8,8.2,8.2,0,0,1-2.411-5.8Z" transform="translate(-173.686 -479.301)" fill="#d18c65" fill-rule="evenodd"/><path d="M385.5,546.029a8.2,8.2,0,1,1,8.2,8.2,8.2,8.2,0,0,1-8.2-8.2Z" transform="translate(-232.617 -479.301)" fill="#d18c65" fill-rule="evenodd"/><path d="M301.81,607.49h34.872s.163,36.028,0,50.209c0,5.849-34.861,5.176-34.861,0Z" transform="translate(-195.856 -509.904)" fill="#d18c65" fill-rule="evenodd"/><path d="M270,508.114c0-26.764,16.261-48.454,36.353-48.454s36.358,21.689,36.358,48.454-16.261,48.454-36.358,48.454S270,534.872,270,508.114Z" transform="translate(-181.883 -444.969)" fill="#e49d75" fill-rule="evenodd"/><path d="M319.809,450.022c-9.235,21.46-47.5,42.414-63.616,47.315C253.647,484.53,270.139,429.948,319.809,450.022Z" transform="translate(-175.708 -438.808)" fill-rule="evenodd"/><path d="M332.369,452.27c-6.992,2.647,15.74,39.022,42.97,47.977C386.469,484.412,360.832,451.519,332.369,452.27Z" transform="translate(-208.718 -441.717)" fill-rule="evenodd"/></g></g></g></svg>