<svg xmlns="http://www.w3.org/2000/svg" width="806.799" height="884.68" viewBox="0 0 806.799 884.68">
  <g id="drawkit-drawing-man-colour" transform="translate(0.324)">
    <line id="Line_10" data-name="Line 10" x1="106.63" y2="2.81" transform="translate(294.215 291.53)" fill="none" stroke="#fd8369" stroke-linecap="round" stroke-miterlimit="10" stroke-width="8"/>
    <path id="Path_207" data-name="Path 207" d="M670.97,672.36V850.09L512.14,938.25,248.15,868.28l-3.3-180.52,179.71-79.74Z" transform="translate(135.505 -142.88)" fill="#fd8369"/>
    <path id="Path_208" data-name="Path 208" d="M666.493,604.65c-5-5.7-138.27,49.4-157.26,75.88S622.223,907,675.933,946.85c6-4.11,20.54-14.53,20.54-14.53s-45.18-138.7-86.25-185.46c10.42-2.84,44.23-11.69,44.23-11.69l37.07-116C685.633,616.72,673.053,612.12,666.493,604.65Z" transform="translate(-152.528 -142.88)" fill="#56cad8"/>
    <path id="Path_209" data-name="Path 209" d="M559.79,619.16,377.5,992.31l26.41,11S538.37,834.2,542.7,821.59c7.89-4.74,137.33-107.07,151.92-180.76C673.91,644.48,594.48,637,559.79,619.16Z" transform="translate(-20.795 -142.88)" fill="#74d5de"/>
    <path id="Path_210" data-name="Path 210" d="M650.66,407.72c-10.74,7.72-22.53,23.37-28.65,77.34-10.85-5-73.72-35.06-73.72-35.06s-15.3,8.63-12.24,12.8,76.5,79.84,98.2,84.57c17,3.9,59.81-52.58,60.92-58.7s-18.91-72.33-18.91-72.33Z" transform="translate(-179.535 -142.88)" fill="#de8e68"/>
    <ellipse id="Ellipse_11" data-name="Ellipse 11" cx="26.61" cy="22.07" rx="26.61" ry="22.07" transform="translate(343.166 332.212) rotate(-115.09)" fill="#de8e68"/>
    <path id="Path_211" data-name="Path 211" d="M589.644,340.52c-33-23.66-104.74,47.11-103,60.34s42.34,65.6,69.18,52.89S613.1,357.31,589.644,340.52Z" transform="translate(-33.319 -142.88)" fill="#fcc486"/>
    <path id="Path_212" data-name="Path 212" d="M447.784,309.39c134.08,0,103.68,307.7,88.33,325.12-35.86,19.92-151.1-8.11-166.71-29.86C356.984,586.82,325.784,309.39,447.784,309.39Z" transform="translate(144.541 -142.88)" fill="#fed385"/>
    <path id="Path_213" data-name="Path 213" d="M387.051,414.63c7.74,10.61,44.55,106,35.27,133.3-16.36,48-129.41,136.76-129.41,136.76-2-8-6.89-31-6.89-31s77.2-107.34,81.22-115.38c-6.31-9.76-33.86-63.71-36.45-91.84S387.051,414.63,387.051,414.63Z" transform="translate(341.495 -142.88)" fill="#de8e68"/>
    <path id="Path_214" data-name="Path 214" d="M435.07,330.06c0,9.86,42.93,9.28,42.93,0V267.21H435.07Z" transform="translate(138.255 -142.88)" fill="#d37c59"/>
    <ellipse id="Ellipse_12" data-name="Ellipse 12" cx="40.54" cy="60.02" rx="40.54" ry="60.02" transform="translate(617.475 162.269) rotate(-178.92)" fill="#de8e68"/>
    <ellipse id="Ellipse_13" data-name="Ellipse 13" cx="11.68" cy="11.68" rx="11.68" ry="11.68" transform="translate(607.785 104.18)" fill="#de8e68"/>
    <path id="Path_215" data-name="Path 215" d="M401.94,163.88c0-14.4,11-21,20-21,16.24,0,25.32,13,40,13,15.77,0,19.47-9,36-9,31.94,0,28.67,32.9,35.26,43.26,8.29,13,13.74,26.32,13.74,35.74,0,17.28-10.63,24.88-19.25,28.08a11.68,11.68,0,0,0-21.36.3c-6.06-2.62-6.55-7.23-6.55-8.75,0-5.51,5.93-15-2.44-23.6-7.06-7.27-46.46-4.91-53.46-13.29-2.66,4-5.27,12.31-6,14.58a30.788,30.788,0,0,1-6,.68c-17.65,0-24-9-24-15,0-9,8-12.33,8-18C415.94,180.84,401.94,182.09,401.94,163.88Z" transform="translate(102.445 -142.88)" fill="#fd8369"/>
    <line id="Line_11" data-name="Line 11" x1="5.8" y2="1.16" transform="translate(519.945 161.26)" fill="#de8e68"/>
    <path id="Path_216" data-name="Path 216" d="M324.911,340.13c-36.42,16.62-9.9,110,2.37,114.78s77.18-4.75,79.16-33.24S350.731,328.33,324.911,340.13Z" transform="translate(338.415 -142.88)" fill="#fed892"/>
    <path id="Path_217" data-name="Path 217" d="M747.25,1002.29,722.46,991.9H670.97l-3.3,8.5,69.19,27.16Z" transform="translate(-363.595 -142.88)"/>
    <path id="Path_218" data-name="Path 218" d="M539.07,931.86,517.5,947.9l-26.24,44.29,5.63,7.18,58.63-45.69Z" transform="translate(4.545 -142.88)"/>
    <path id="Path_219" data-name="Path 219" d="M1009.522,467.19c-5,16.38,36.95,19.77,39.33,11.93S1014.842,449.67,1009.522,467.19Z" transform="translate(-1006.746 -142.88)" fill="#74d5de"/>
    <path id="Path_220" data-name="Path 220" d="M1006.167,509.45c-7.84,15.21,32.78,26.11,36.53,18.83S1014.606,493.17,1006.167,509.45Z" transform="translate(-996.841 -142.88)" fill="#74d5de"/>
    <path id="Path_221" data-name="Path 221" d="M1008.536,559.05c-7.84,15.21,32.77,26.11,36.53,18.83S1016.906,542.77,1008.536,559.05Z" transform="translate(-1001.581 -142.88)" fill="#74d5de"/>
    <path id="Path_222" data-name="Path 222" d="M1014.854,605c-7.13,13.83,28.31,23,31.72,16.35S1022.484,590.21,1014.854,605Z" transform="translate(-1009.449 -142.88)" fill="#74d5de"/>
    <path id="Path_223" data-name="Path 223" d="M1019.314,656c-7.13,13.83,28.31,23,31.72,16.35S1026.954,641.2,1019.314,656Z" transform="translate(-1018.369 -142.88)" fill="#74d5de"/>
    <path id="Path_224" data-name="Path 224" d="M1045.61,852.15c-1.21-5.61-59.78-47.41-73.65-112.08-22.6-105.41,24.94-170.83,8.8-246.13-3-14.23-14-58.79-40.48-72.05" transform="translate(-934.565 -142.88)" fill="none" stroke="#74d5de" stroke-linecap="round" stroke-miterlimit="10" stroke-width="9"/>
    <path id="Path_225" data-name="Path 225" d="M1005.311,722.55c-13.48-7.78-24.3,27.18-17.84,30.91S1019.741,730.88,1005.311,722.55Z" transform="translate(-943.855 -142.88)" fill="#74d5de"/>
    <path id="Path_226" data-name="Path 226" d="M1014.313,681.63c-10.32-11.65-31.65,18.09-26.71,23.67S1025.363,694.09,1014.313,681.63Z" transform="translate(-952.117 -142.88)" fill="#74d5de"/>
    <path id="Path_227" data-name="Path 227" d="M1015.7,633.65c-10.32-11.65-31.65,18.09-26.71,23.67S1026.752,646.12,1015.7,633.65Z" transform="translate(-954.897 -142.88)" fill="#74d5de"/>
    <path id="Path_228" data-name="Path 228" d="M1012.943,593.69c-8-13.37-34.48,11.85-30.67,18.25S1021.463,608,1012.943,593.69Z" transform="translate(-944.838 -142.88)" fill="#74d5de"/>
    <path id="Path_229" data-name="Path 229" d="M998.517,538.54c-10-11.92-32.13,17.22-27.34,22.93S1009.227,551.3,998.517,538.54Z" transform="translate(-919.812 -142.88)" fill="#74d5de"/>
    <path id="Path_230" data-name="Path 230" d="M997.959,480c-11-10.95-30.41,20.1-25.12,25.35S1009.789,491.76,997.959,480Z" transform="translate(-921.204 -142.88)" fill="#74d5de"/>
    <path id="Path_231" data-name="Path 231" d="M1033.379,405.22c-11-11-30.41,20.1-25.12,25.35S1045.239,416.94,1033.379,405.22Z" transform="translate(-992.054 -142.88)" fill="#74d5de"/>
    <path id="Path_232" data-name="Path 232" d="M844.07,676.68c2.94-7.84,5-29.25,5-39.66,0-69.91,41.51-83,62.74-83,41.32,0,64.63,38.21,64.63,69.55,0,27.72-11.76,52.36-26.18,73.18a22.27,22.27,0,1,0-27.45,33.89c-11.91,13.28-21.76,23.59-24.21,30.49-8.33,23.06-4.72,34-9.43,45.28-11.48,27.49-23.17,41.8-37.16,40.58-32.44-2.83-45.27-30.34-45.27-101.43C806.69,725.42,832.91,706.4,844.07,676.68Z" transform="translate(-731.855 -142.88)" fill="#74d5de"/>
    <path id="Path_233" data-name="Path 233" d="M670.97,600.35,861.5,644.7V212.8L670.97,162.75Z" transform="translate(-481.145 -142.88)" fill="#f7f7f7" opacity="0.5"/>
    <path id="Path_234" data-name="Path 234" d="M904.176,980.07h88.43a9.57,9.57,0,0,0,9.09-6.56l43.95-133.32a9.56,9.56,0,0,0-9.08-12.56H859.8a9.57,9.57,0,0,0-9.08,12.59L895.1,973.53a9.56,9.56,0,0,0,9.08,6.54Z" transform="translate(-845.031 -142.88)" fill="#fd8369"/>
  </g>
</svg>
