<svg xmlns="http://www.w3.org/2000/svg" width="727" height="890" viewBox="0 0 727 890">
  <g id="drawing-woman-colour" transform="translate(-150 -55)">
    <line id="Line_2" data-name="Line 2" x1="68" y2="250" transform="translate(390 639)" fill="none" stroke="#fd8369" stroke-linecap="round" stroke-miterlimit="10" stroke-width="4"/>
    <line id="Line_3" data-name="Line 3" x2="68" y2="250" transform="translate(483 639)" fill="none" stroke="#fd8369" stroke-linecap="round" stroke-miterlimit="10" stroke-width="4"/>
    <path id="Path_193" data-name="Path 193" d="M433,644H303L150,280H280Z" fill="#fd8369"/>
    <line id="Line_4" data-name="Line 4" y2="364" transform="translate(477 450)" fill="none" stroke="#fd8369" stroke-linecap="round" stroke-miterlimit="10" stroke-width="4"/>
    <line id="Line_5" data-name="Line 5" y2="420" transform="translate(526 450)" fill="none" stroke="#fd8369" stroke-linecap="round" stroke-miterlimit="10" stroke-width="4"/>
    <rect id="Rectangle_3" data-name="Rectangle 3" width="17.08" height="19" transform="matrix(1, -0.005, 0.005, 1, 585.618, 860.223)" fill="#de8e68"/>
    <path id="Path_194" data-name="Path 194" d="M585.27,892.73l63.62,2.94,1.11-5.25L606.1,874.6l-20.37.69Z"/>
    <rect id="Rectangle_4" data-name="Rectangle 4" width="22.47" height="25" transform="matrix(0.84, 0.542, -0.542, 0.84, 496.76, 860.414)" fill="#de8e68"/>
    <path id="Path_195" data-name="Path 195" d="M585,812v50h17s29-68,38-113" fill="#56cad8"/>
    <path id="Path_196" data-name="Path 196" d="M426.51,498.08C437,496,503,485,575,485c83,0,118.5,9.5,127,18s-24,136-29,146" fill="#56cad8"/>
    <path id="Path_197" data-name="Path 197" d="M286,479c-6,11-4.34,13-6,50-6,134,186,113,315,149C562,781,495,857,495,862s15.33,16.36,18,15c51-26,208.13-198.65,206-228-4-55-262-152-296-152" fill="#74d5de"/>
    <path id="Path_198" data-name="Path 198" d="M487.31,329.9C517,355,534,409,536,409c73,0,143,19,148,19s15-7,19-7,22,8,22,12-214,1-219,1c-4.5-4.5-43-41-43-47" fill="#d9805a"/>
    <line id="Line_6" data-name="Line 6" x2="17" y2="56" transform="translate(683 312)" fill="none" stroke="#fd8369" stroke-linecap="round" stroke-miterlimit="10" stroke-width="4"/>
    <path id="Path_199" data-name="Path 199" d="M392,231c-20.53,15.64,2,129,21,136s83-35,84-50S413,215,392,231Z" fill="#fed07d"/>
    <path id="Path_200" data-name="Path 200" d="M283,446c23-99,101-242,118-258,35,0,82,79,82,126,0,53-48.95,179.3-59,186-18,12-116,3-142-21C277.29,474.66,283,446,283,446Z" fill="#fed385"/>
    <circle id="Ellipse_8" data-name="Ellipse 8" cx="11.5" cy="11.5" r="11.5" transform="translate(393 127)" fill="#de8e68"/>
    <path id="Path_201" data-name="Path 201" d="M395,198c-.81,2.71,32.5,9.5,35,7,0-5,0-27,3-35s-19.06-31.4-25.53-33.7C401,147,385,132,391,147S401,178,395,198Z" fill="#d9805a"/>
    <ellipse id="Ellipse_9" data-name="Ellipse 9" cx="28" cy="53" rx="28" ry="53" transform="translate(399 73)" fill="#de8e68"/>
    <path id="Path_202" data-name="Path 202" d="M377,82c-30,0-36-27-71-27-29,0-39.35,19.51-52,29-12,9-57,20-57,69,0,34,26,65,55,65,36,0,71-45,109-45,16,0,13,6,32,6,7,0,7-5,7-7s3-6,3-10c0-12-10-7-10-23,0-7,7-11.73,14-11.73S444,102,444,84c2,2,5,11,5,12,1,0,2-5,2-7,0-20-20-25-27-25C408,64,401,82,377,82Z"/>
    <path id="Path_203" data-name="Path 203" d="M390,244c-20.53,15.64,2,129,21,136s83-35,84-50S411,228,390,244Z" fill="#fed892"/>
    <path id="Path_204" data-name="Path 204" d="M485,340c3,4,21,29,21,29,10,0,46-2,167-37,4-1,13.43,15.91,7,20-22,14-172,81-205,81-8,0-51-53-51-60" fill="#de8e68"/>
    <circle id="Ellipse_10" data-name="Ellipse 10" cx="14.5" cy="14.5" r="14.5" transform="translate(672 324)" fill="#de8e68"/>
    <path id="Path_205" data-name="Path 205" d="M513,877c51-26,211.09-199,206-228-10-57-262-152-296-152" fill="none"/>
    <path id="Path_206" data-name="Path 206" d="M473,896l68,49,5-5-37-49-22.94-13.89Z"/>
    <rect id="Rectangle_5" data-name="Rectangle 5" width="419" height="19" transform="translate(458 435)" fill="#fd8369"/>
    <line id="Line_7" data-name="Line 7" y2="364" transform="translate(807 450)" fill="none" stroke="#fd8369" stroke-linecap="round" stroke-miterlimit="10" stroke-width="4"/>
    <line id="Line_8" data-name="Line 8" y2="420" transform="translate(857 450)" fill="none" stroke="#fd8369" stroke-linecap="round" stroke-miterlimit="10" stroke-width="4"/>
    <line id="Line_9" data-name="Line 9" x1="68" y2="250" transform="translate(277 639)" fill="none" stroke="#fd8369" stroke-linecap="round" stroke-miterlimit="10" stroke-width="4"/>
  </g>
</svg>
