<?xml version="1.0" encoding="iso-8859-1"?>
<!-- Generator: Adobe Illustrator 19.0.0, SVG Export Plug-In . SVG Version: 6.00 Build 0)  -->
<svg version="1.1" id="Capa_1" xmlns="http://www.w3.org/2000/svg" xmlns:xlink="http://www.w3.org/1999/xlink" x="0px" y="0px"
	 viewBox="0 0 490 490" style="enable-background:new 0 0 490 490;" xml:space="preserve">
<path d="M69.086,490h351.829C459.001,490,490,459.001,490,420.914V69.086C490,30.991,459.001,0,420.914,0H69.086
	C30.999,0,0,30.991,0,69.086v351.829C0,459.001,30.999,490,69.086,490z M332.349,132.647c23.551,0,42.642,19.091,42.642,42.641
	c0,23.551-19.091,42.642-42.642,42.642c-23.55,0-42.641-19.091-42.641-42.642C289.708,151.738,308.799,132.647,332.349,132.647z
	 M370.61,339.597l-18.303,24.554c-105.797-78.91-210.188-3.26-214.584,0l-18.333-24.539
	C120.646,338.684,246.196,246.787,370.61,339.597z M157.651,132.647c23.55,0,42.641,19.091,42.641,42.641
	c0,23.551-19.091,42.642-42.641,42.642c-23.551,0-42.642-19.091-42.642-42.642C115.009,151.738,134.1,132.647,157.651,132.647z"/>
<g>
</g>
<g>
</g>
<g>
</g>
<g>
</g>
<g>
</g>
<g>
</g>
<g>
</g>
<g>
</g>
<g>
</g>
<g>
</g>
<g>
</g>
<g>
</g>
<g>
</g>
<g>
</g>
<g>
</g>
</svg>
