<svg xmlns="http://www.w3.org/2000/svg" width="474.279" height="391.244" viewBox="0 0 474.279 391.244"><g transform="translate(50 -81.378)"><ellipse cx="207" cy="150" rx="207" ry="150" transform="translate(-50 181.533) rotate(-14)" fill="#f8f8f8"/><g transform="translate(-211.43 -219.273)"><path d="M513.13,399.511a37.031,37.031,0,1,1,37.029,37.031,37.031,37.031,0,0,1-37.029-37.031Z" transform="translate(-155.437 -11.127)" fill="#dfdfdf"/><path d="M308.5,1055.12l-10.778,6.353v1.565h21.051v-7.918Z" transform="translate(-28.927 -412.288)"/><path d="M449.18,1056.12h10.334v7.111H449.18Z" transform="translate(-117.367 -412.852)"/><path d="M252.97,797.1,291.4,808.51l-6.54,22.054L246.43,819.154Z" transform="translate(0 -263.559)" fill="#dfdfdf"/><path d="M328.224,719.87,321.3,866.738l11.668.1,23.911-96.111-.571-47.818Z" transform="translate(-42.225 -223.212)" fill="#61cad6"/><path d="M414.644,717.618c-.187,4.177-.667,147.456-.667,147.456l-11.38.083L367.21,721.224S414.84,713.446,414.644,717.618Z" transform="translate(-70.166 -221.249)" fill="#6bd5e1"/><path d="M301.677,626.195c-2.363,3.985-8.023,34.053-7.97,41.086-1.823,6.3-.344,25.245-.3,27.757s-.436,11.908.1,14.219c-1.43,3.645,5.8,11.223,8.018,11.419s4.822-3.689,4.822-5.564c0-4.77-3.109-8.8-3.052-10.774.3-9.841,4.578-34.938,5.119-36.625a17.99,17.99,0,0,1,3.889-6.3c1.526-1.33,2.263-30.6,2.263-30.6S302.937,624.071,301.677,626.195Z" transform="translate(-26.151 -165.432)" fill="#e49d75"/><path d="M383.187,508.726c0,1.238.759,12.6-.689,15.152s14.293,1.687,14.293-.244-.519-10.9.754-14.149S383.187,507.483,383.187,508.726Z" transform="translate(-78.745 -95.383)" fill="#e49d75"/><path d="M495.728,517.676l2.3,1.679s19.778-38.291,20.018-39.677-1.308-4.8-1.073-6.422,8.193-9.514,10.687-9.636,2.69,1.112,2.08,2.328-5.385,6.065-5.385,6.065,3.3-.911,4.46,0,5.537,6.754,3.894,9.309-4.8,3.833-5.415,5.354-19.411,54.367-21.718,55.409c-3.894,1.744-16.486-4.36-18.374-7.36S495.728,517.676,495.728,517.676Z" transform="translate(-139.722 -70.476)" fill="#e49d75"/><path d="M331.374,549.3c12.928,4.67,4.513,39.032.41,41.422-3.248,1.884-26.989-5.6-27.8-9.187C302.78,576.218,320.138,545.243,331.374,549.3Z" transform="translate(-32.426 -119.706)" fill="#ffc48e"/><path d="M364.325,535.55c33.194-.109,36.42,75.592,30.848,80.772-10.028,9.335-58.274,5.154-60.375.2C331.349,608.4,332.971,535.65,364.325,535.55Z" transform="translate(-49.117 -112.546)" fill="#ffd98e"/><path d="M414.539,558.876c5.725-12.492,39.272-1.247,41.3,3.052,1.609,3.4-7.848,26.431-11.472,26.941C438.978,589.611,409.56,569.733,414.539,558.876Z" transform="translate(-97.277 -122.081)" fill="#ffe3ad"/><path d="M371,447.953c0-10.848,6.71-19.643,14.99-19.643s14.99,8.794,14.99,19.643S394.27,467.6,385.99,467.6,371,458.8,371,447.953Z" transform="translate(-72.239 -48.254)" fill="#e49d75"/><path d="M359.623,427.41c-.549-8.2,4.19-15.814,5.877-20.6,1.456-4.6,4.36-8.023,8.11-8.2s4.8.772,7.295.68,6.837-2.917,9.662-2.917,4.513,2.019,6.257,3.283,5.346,3.645,5.332,5.742c-.074,12.61-11.6,11.415-14.951,15.038-2.276,1.914-2.416,6.383-3.554,7.111s-3.6.3-3.645,3.876c-.026,2.106.545,3.828,2.049,3.963s2.036.685,2.006,1.779c-.318,10.56-7.774,12.544-10.813,12.239-4.26-.4-5.468-5.6-6.518-7.382C362.7,437.526,359.963,432.564,359.623,427.41Z" transform="translate(-65.699 -30.241)"/><path d="M593.93,389.992l5.551-23.619,5.555-23.623,10.726,5.616,10.713,5.616-16.263,18.007Z" transform="translate(-201.567)" fill="#949494"/><path d="M724.7,367.17H831.166v65.472H724.7Z" transform="translate(-280.143 -13.773)" fill="#dfdfdf"/><path d="M739.43,379.23h9.448v54.938H739.43Z" transform="translate(-285.365 -20.574)" fill="#949494"/><path d="M771.6,397.5h9.448v46.989H771.6Z" transform="translate(-303.986 -30.878)" fill="#949494"/><path d="M803.78,425.22h9.448V460.1H803.78Z" transform="translate(-322.613 -46.512)" fill="#949494"/><path d="M836,462.83h9.444v18.5H836Z" transform="translate(-342.914 -69.559)" fill="#949494"/><path d="M868.13,426.4h9.448v34.389H868.13Z" transform="translate(-361.035 -47.177)" fill="#949494"/><path d="M900.31,398.91h9.457v46.375H900.31Z" transform="translate(-379.184 -31.673)" fill="#949494"/><path d="M932.49,379.23h9.444v54.938H932.49Z" transform="translate(-397.333 -20.574)" fill="#949494"/><path d="M609.3,636.388l20.013-20.018" transform="translate(-210.234 -158.523)" fill="none" stroke="#000" stroke-linecap="round" stroke-linejoin="round" stroke-width="1"/><path d="M681.08,613l21.483-21.478" transform="translate(-251.855 -144.145)" fill="none" stroke="#000" stroke-linecap="round" stroke-linejoin="round" stroke-width="1"/><path d="M756,609.23l4.67-4.67" transform="translate(-294.84 -151.484)" fill="none" stroke="#000" stroke-linecap="round" stroke-linejoin="round" stroke-width="1"/><path d="M808.57,609.695l27.905-27.9" transform="translate(-327.444 -138.588)" fill="none" stroke="#000" stroke-linecap="round" stroke-linejoin="round" stroke-width="1"/><path d="M655.35,615.61l10.722,10.726" transform="translate(-236.722 -157.956)" fill="none" stroke="#000" stroke-linecap="round" stroke-linejoin="round" stroke-width="1"/><path d="M730.42,592l10.63,10.63" transform="translate(-280.178 -144.287)" fill="none" stroke="#000" stroke-linecap="round" stroke-linejoin="round" stroke-width="1"/><path d="M767.34,604l17.994,17.994" transform="translate(-301.743 -151.329)" fill="none" stroke="#000" stroke-linecap="round" stroke-linejoin="round" stroke-width="1"/><path d="M874.2,580.21l6.941,6.937" transform="translate(-364.458 -137.42)" fill="none" stroke="#000" stroke-linecap="round" stroke-linejoin="round" stroke-width="1"/><path d="M652.73,614.869a1.2,1.2,0,1,1,1.2,1.2A1.2,1.2,0,0,1,652.73,614.869Z" transform="translate(-235.044 -156.726)"/><path d="M677.89,638.279a1.2,1.2,0,1,1,1.2,1.2A1.2,1.2,0,0,1,677.89,638.279Z" transform="translate(-249.599 -170.269)"/><path d="M727.39,591.289a1.2,1.2,0,1,1,1.195,1.2A1.2,1.2,0,0,1,727.39,591.289Z" transform="translate(-278.235 -143.086)"/><path d="M752.61,614.2a1.2,1.2,0,1,1,1.2,1.2A1.2,1.2,0,0,1,752.61,614.2Z" transform="translate(-292.824 -156.339)"/><path d="M764.53,602.639a1.2,1.2,0,1,1,1.2,1.2A1.2,1.2,0,0,1,764.53,602.639Z" transform="translate(-299.72 -149.651)"/><path d="M806.05,643.059a1.2,1.2,0,1,1,1.2,1.2,1.2,1.2,0,0,1-1.2-1.2Z" transform="translate(-323.739 -173.034)"/><path d="M871.41,579.449a1.2,1.2,0,1,1,1.2,1.2A1.2,1.2,0,0,1,871.41,579.449Z" transform="translate(-362.885 -136.236)"/></g></g></svg>