<?xml version="1.0" encoding="iso-8859-1"?>
<!-- Generator: Adobe Illustrator 19.0.0, SVG Export Plug-In . SVG Version: 6.00 Build 0)  -->
<svg version="1.1" id="Capa_1" xmlns="http://www.w3.org/2000/svg" xmlns:xlink="http://www.w3.org/1999/xlink" x="0px" y="0px"
	 viewBox="0 0 490 490" style="enable-background:new 0 0 490 490;" xml:space="preserve">
<path d="M420.914,0H69.086C30.999,0,0,30.999,0,69.086v351.829C0,459.001,30.999,490,69.086,490h351.829
	C459.001,490,490,459.001,490,420.914V69.086C490,30.999,459.001,0,420.914,0z M353.982,119.883l16.658,25.69l-45.908,29.788
	l45.923,29.803l-16.688,25.69l-85.49-55.493L353.982,119.883z M119.345,145.573l16.658-25.69l85.505,55.478l-85.49,55.493
	l-16.688-25.69l45.923-29.803L119.345,145.573z M352.382,364.24c-106.245-79.269-213.478-0.822-214.554-0.015l-18.363-24.524
	c1.256-0.912,126.807-92.817,251.221-0.015L352.382,364.24z"/>
<g>
</g>
<g>
</g>
<g>
</g>
<g>
</g>
<g>
</g>
<g>
</g>
<g>
</g>
<g>
</g>
<g>
</g>
<g>
</g>
<g>
</g>
<g>
</g>
<g>
</g>
<g>
</g>
<g>
</g>
</svg>
