<?xml version="1.0" encoding="iso-8859-1"?>
<!-- Generator: Adobe Illustrator 19.0.0, SVG Export Plug-In . SVG Version: 6.00 Build 0)  -->
<svg version="1.1" id="Capa_1" xmlns="http://www.w3.org/2000/svg" xmlns:xlink="http://www.w3.org/1999/xlink" x="0px" y="0px"
	 viewBox="0 0 490 490" style="enable-background:new 0 0 490 490;" xml:space="preserve">
<path d="M420.914,0H69.086C30.999,0,0,30.999,0,69.086v351.829C0,459.001,30.999,490,69.086,490h351.829
	C459.001,490,490,459.001,490,420.914V69.086C490,30.999,459.001,0,420.914,0z M119.36,145.573l16.658-25.69l85.505,55.478
	l-85.49,55.493l-16.688-25.69l45.923-29.803L119.36,145.573z M249.83,367.007c-73.886,0-129.693-40.853-130.53-41.466l18.333-24.539
	c4.396,3.26,108.728,78.94,214.584,0l18.303,24.554C328.845,356.644,287.035,367.007,249.83,367.007z M353.982,230.854
	l-85.49-55.493l85.505-55.478l16.658,25.69l-45.908,29.788l45.923,29.803L353.982,230.854z"/>
<g>
</g>
<g>
</g>
<g>
</g>
<g>
</g>
<g>
</g>
<g>
</g>
<g>
</g>
<g>
</g>
<g>
</g>
<g>
</g>
<g>
</g>
<g>
</g>
<g>
</g>
<g>
</g>
<g>
</g>
</svg>
