<svg xmlns="http://www.w3.org/2000/svg" width="1106.5" height="816.628" viewBox="0 0 1106.5 816.628">
  <g id="search-empty" transform="translate(-45.87 -209.872)">
    <path id="Path_244" data-name="Path 244" d="M711.1,528.1c0-21.86-47-74.85-84.67-74.85-28.93,0-29.4,15.3-57.59,15.3-43.46,0-75.71-72.66-159.29-72.66-89.05,0-205.41,83.58-205.41,149.14C204.14,638.91,711.1,661.41,711.1,528.1Z" fill="#e2e2e2"/>
    <path id="Path_245" data-name="Path 245" d="M935.51,849.68c1-102,2.6-265.85,2.6-290.1,0-35.58-52.84-142.15-145.27-142.15-101.26,0-151.3,116.21-217.58,116.21-60.75,0-65.54-30.76-140.74-30.76-49,0-149.82,62.8-149.82,127l67.11,219.75Z" fill="#f3f3f3"/>
    <ellipse id="Ellipse_14" data-name="Ellipse 14" cx="11.73" cy="5.25" rx="11.73" ry="5.25" transform="translate(596.777 691.423) rotate(-87.24)" fill="#d37c59"/>
    <path id="Path_246" data-name="Path 246" d="M590.19,739.68c-.2-1.94,4.32-42.23,7.92-55a16,16,0,0,1,6.71-.94l-.34,39.7-5,18.67Z" fill="#d37c59"/>
    <path id="Path_247" data-name="Path 247" d="M620.7,683.58l-31.44,2.6-1-6.22,30.26-9.57Z"/>
    <rect id="Rectangle_9" data-name="Rectangle 9" width="13.77" height="11.65" transform="translate(544.3 999.24)" fill="#de8e68"/>
    <rect id="Rectangle_10" data-name="Rectangle 10" width="13.77" height="11.65" transform="translate(586.9 1001.06)" fill="#de8e68"/>
    <path id="Path_248" data-name="Path 248" d="M542.87,805V999.88H559l18.54-104.26S580.09,839.22,542.87,805Z" fill="#56cad8"/>
    <path id="Path_249" data-name="Path 249" d="M596,801.16c.45,5.62,6.06,107.88,6.06,107.88v93.11l-16.55,1.77-10.64-99-32-99.92C547.71,802.34,583.16,797.33,596,801.16Z" fill="#74d5de"/>
    <path id="Path_250" data-name="Path 250" d="M566.51,715.47c31.79,0,33.3,80.83,29.52,85.69s-49,8.17-53.16,3.83S526.9,715.47,566.51,715.47Z" fill="#fed385"/>
    <ellipse id="Ellipse_15" data-name="Ellipse 15" cx="11.73" cy="5.25" rx="11.73" ry="5.25" transform="translate(602.041 691.419) rotate(-87.24)" fill="#de8e68"/>
    <path id="Path_251" data-name="Path 251" d="M585.61,1010.89v11.65h32.74v-4.24l-17.03-7.41Z"/>
    <path id="Path_252" data-name="Path 252" d="M543.87,1009.05v11.65h32.74v-4.24l-17.03-7.41Z"/>
    <rect id="Rectangle_11" data-name="Rectangle 11" width="3.86" height="3.86" transform="translate(585.249 681.697) rotate(-8.92)"/>
    <path id="Path_253" data-name="Path 253" d="M568.84,722.5c0,2.67-12.41,3-12.41,0V696h12.41Z" fill="#d37c59"/>
    <ellipse id="Ellipse_16" data-name="Ellipse 16" cx="13.03" cy="19.89" rx="13.03" ry="19.89" transform="translate(555.43 668.43)" fill="#dc8e6c"/>
    <path id="Path_254" data-name="Path 254" d="M545.77,680.12c0-6.13,2.67-10,4.84-11.23,4.19-2.4,5.94-1.33,10.16-3.2,4.57-2,8.49-7.84,13.84-7.84,5,0,4.55,2.84,7.94,3.68,2,.49,13.36-2.12,13.36,5.23,0,11.32-12.57,12.24-15.48,13.69a37.434,37.434,0,0,0-1.52-3.83c-2.29,2.36-10.58,4-11.92,4.53-3.1,1.28-4.58,6.13-4.58,9.3s-2.87,3.18-3.59,3.18C552.19,693.63,545.77,689.38,545.77,680.12Z"/>
    <circle id="Ellipse_17" data-name="Ellipse 17" cx="4.33" cy="4.33" r="4.33" transform="translate(552.34 687.34)" fill="#dc8e6c"/>
    <rect id="Rectangle_12" data-name="Rectangle 12" width="25.14" height="84.61" rx="12.57" transform="translate(512.81 718.34)" fill="#d3d3d3"/>
    <ellipse id="Ellipse_18" data-name="Ellipse 18" cx="30.38" cy="32.89" rx="30.38" ry="32.89" transform="translate(514.51 718.35)" fill="none" stroke="#d3d3d3" stroke-miterlimit="10" stroke-width="3.69"/>
    <path id="Path_255" data-name="Path 255" d="M576.84,736.83c2.53,0,15.29.53,20.48,2.4.4-2.53,2.66-38.77,6.51-50.91,1.47-1.62,7.45-1.43,7.45,0s8.51,60.88,0,67.93-37.37-2.4-38.56-3.33S576.84,736.83,576.84,736.83Z" fill="#de8e68"/>
    <path id="Path_256" data-name="Path 256" d="M549.66,734.69c2.82-11.48,28.36-1.93,30.67.69,2.77,3.14-2.18,20.84-6,21.66C568.1,758.39,546,749.58,549.66,734.69Z" fill="#fed892"/>
    <path id="Path_257" data-name="Path 257" d="M266.38,341.65,142.64,849.68H390.13Z" fill="#fed892"/>
    <path id="Path_258" data-name="Path 258" d="M169.62,341.65,45.87,893.9H293.36Z" fill="#56cad8"/>
    <line id="Line_12" data-name="Line 12" y1="496.08" transform="translate(170.29 395.36)" fill="none" stroke="#fed385" stroke-linecap="round" stroke-linejoin="round" stroke-width="3.84"/>
    <line id="Line_13" data-name="Line 13" y1="29.23" x2="26.89" transform="translate(170.29 529.72)" fill="none" stroke="#fed385" stroke-linecap="round" stroke-linejoin="round" stroke-width="3.84"/>
    <line id="Line_14" data-name="Line 14" y1="43.92" x2="40.41" transform="translate(170.29 655.02)" fill="none" stroke="#fed385" stroke-linecap="round" stroke-linejoin="round" stroke-width="3.84"/>
    <line id="Line_15" data-name="Line 15" y1="68.32" x2="62.85" transform="translate(170.29 776.66)" fill="none" stroke="#fed385" stroke-linecap="round" stroke-linejoin="round" stroke-width="3.84"/>
    <line id="Line_16" data-name="Line 16" x1="26.89" y1="29.23" transform="translate(143.4 529.72)" fill="none" stroke="#fed385" stroke-linecap="round" stroke-linejoin="round" stroke-width="3.84"/>
    <line id="Line_17" data-name="Line 17" x1="40.4" y1="43.92" transform="translate(129.89 655.02)" fill="none" stroke="#fed385" stroke-linecap="round" stroke-linejoin="round" stroke-width="3.84"/>
    <line id="Line_18" data-name="Line 18" x1="62.85" y1="68.32" transform="translate(107.44 776.66)" fill="none" stroke="#fed385" stroke-linecap="round" stroke-linejoin="round" stroke-width="3.84"/>
    <rect id="Rectangle_13" data-name="Rectangle 13" width="135.39" height="197.16" rx="67.69" transform="translate(190.5 734.34)" fill="#74d5de"/>
    <line id="Line_19" data-name="Line 19" y1="187.09" transform="translate(258.19 795.85)" fill="none" stroke="#fed385" stroke-linecap="round" stroke-linejoin="round" stroke-width="3.69"/>
    <path id="Path_259" data-name="Path 259" d="M258.19,875.41c37,0,37-22.28,37-56" fill="none" stroke="#fed385" stroke-linecap="round" stroke-linejoin="round" stroke-width="3.69"/>
    <path id="Path_260" data-name="Path 260" d="M258.19,841.33c-25.65,0-25.65-15.47-25.65-38.84" fill="none" stroke="#fed385" stroke-linecap="round" stroke-linejoin="round" stroke-width="3.69"/>
    <path id="Path_261" data-name="Path 261" d="M1152.37,849.68V667.57a81.52,81.52,0,0,0-81.28-81.28h0a81.642,81.642,0,0,0-13.07,1.06V377.78a55.64,55.64,0,0,0-55.63-55.64h0a55.64,55.64,0,0,0-55.64,55.64v44.86a80.639,80.639,0,0,0-26-4.31h0a81.52,81.52,0,0,0-81.28,81.29V649H804.08a55.7,55.7,0,0,0-55.53,55.53V833.86a55.159,55.159,0,0,0,2.316,15.808Z" fill="#fed385"/>
    <path id="Path_262" data-name="Path 262" d="M1000.16,740.85c91.61,0,91.61-41,91.61-103" fill="none" stroke="#74d5de" stroke-linecap="round" stroke-linejoin="round" stroke-width="3.69"/>
    <path id="Path_263" data-name="Path 263" d="M1000.25,795.48c-50.4,0-50.4-22.56-50.4-56.67" fill="none" stroke="#74d5de" stroke-linecap="round" stroke-linejoin="round" stroke-width="3.69"/>
    <line id="Line_20" data-name="Line 20" y1="485.51" transform="translate(1000.16 364.17)" fill="none" stroke="#74d5de" stroke-linecap="round" stroke-linejoin="round" stroke-width="3.69"/>
    <line id="Line_21" data-name="Line 21" x1="50.22" y1="50.23" transform="translate(949.94 587.62)" fill="none" stroke="#74d5de" stroke-linecap="round" stroke-linejoin="round" stroke-width="3.69"/>
    <line id="Line_22" data-name="Line 22" y1="30.38" x2="30.39" transform="translate(1000.16 503.83)" fill="none" stroke="#74d5de" stroke-linecap="round" stroke-linejoin="round" stroke-width="3.69"/>
    <path id="Path_264" data-name="Path 264" d="M750.49,341.65a47.18,47.18,0,0,0-86.25-35.55,37.43,37.43,0,0,0-52.84,34.1c0,.49,0,1,0,1.45Z" fill="#f3f3f3"/>
    <path id="Path_265" data-name="Path 265" d="M291.91,268.28a47.18,47.18,0,0,1,86.25-35.55A37.4,37.4,0,0,1,431,266.83c0,.48,0,1,0,1.45Z" fill="#f3f3f3"/>
    <path id="Path_266" data-name="Path 266" d="M924.33,936.06c-50.28,0-91,21.47-91,48h182.05C1015.35,957.53,974.6,936.06,924.33,936.06Z" fill="#74d5de"/>
    <path id="Path_267" data-name="Path 267" d="M502.76,1006.93c-12.55,0-22.73,8.76-22.73,19.57H525.5C525.5,1015.69,515.32,1006.93,502.76,1006.93Z" fill="#fb836d"/>
    <path id="Path_268" data-name="Path 268" d="M833.3,902.44c-12.56,0-22.73,13-22.73,29.06H856C856,915.45,845.85,902.44,833.3,902.44Z" fill="#fb836d"/>
    <path id="Path_269" data-name="Path 269" d="M120.87,974.57c-20,0-36.16,6.51-36.16,14.53H157C157,981.08,140.84,974.57,120.87,974.57Z" fill="#fb836d"/>
    <path id="Path_270" data-name="Path 270" d="M1030.55,974.57c-20,0-36.16,6.51-36.16,14.53h72.31C1066.7,981.08,1050.52,974.57,1030.55,974.57Z" fill="#fb836d"/>
    <rect id="Rectangle_14" data-name="Rectangle 14" width="87.67" height="127.66" rx="43.83" transform="translate(838.22 746.55)" fill="#74d5de"/>
    <line id="Line_23" data-name="Line 23" y1="121.15" transform="translate(882.06 786.38)" fill="none" stroke="#fed385" stroke-linecap="round" stroke-linejoin="round" stroke-width="2.39"/>
    <path id="Path_271" data-name="Path 271" d="M882.06,837.9C906,837.9,906,823.47,906,801.64" fill="none" stroke="#fed385" stroke-linecap="round" stroke-linejoin="round" stroke-width="2.39"/>
    <path id="Path_272" data-name="Path 272" d="M882.06,815.83c-16.61,0-16.61-10-16.61-25.16" fill="none" stroke="#fed385" stroke-linecap="round" stroke-linejoin="round" stroke-width="2.39"/>
    <line id="Line_24" data-name="Line 24" x2="81.04" transform="translate(331.71 947.65)" fill="none" stroke="#fed385" stroke-linecap="round" stroke-linejoin="round" stroke-width="3.69"/>
    <line id="Line_25" data-name="Line 25" x2="53.74" transform="translate(668.4 893.9)" fill="none" stroke="#fed385" stroke-linecap="round" stroke-linejoin="round" stroke-width="3.69"/>
    <line id="Line_26" data-name="Line 26" x2="53.75" transform="translate(627.87 907.53)" fill="none" stroke="#fed385" stroke-linecap="round" stroke-linejoin="round" stroke-width="3.69"/>
    <line id="Line_27" data-name="Line 27" x2="53.75" transform="translate(116.88 918.64)" fill="none" stroke="#fed385" stroke-linecap="round" stroke-linejoin="round" stroke-width="3.69"/>
    <line id="Line_28" data-name="Line 28" x2="75.55" transform="translate(748.55 999.24)" fill="none" stroke="#fed385" stroke-linecap="round" stroke-linejoin="round" stroke-width="3.69"/>
  </g>
</svg>
