<svg xmlns="http://www.w3.org/2000/svg" width="474.279" height="391.244" viewBox="0 0 474.279 391.244"><g transform="translate(49.139 -81.378)"><ellipse cx="207" cy="150" rx="207" ry="150" transform="translate(352.563 472.622) rotate(-166)" fill="#f8f8f8"/><g transform="translate(22.388 141.921)"><g transform="translate(0)"><path d="M179.342,281.911c30.079-20.823,87.433-51.373,142.31-72.478q1.459-1.305,2.967-2.632c22.484-19.877,52.5-44.675,56.119-71.787,3.56-27.171-19.28-56.716-47.223-72.673C305.573,46.441,272.531,44.064,239.427,44s-66.269,2.14-82.771,20.118c-16.425,17.926-16.188,51.673-18.68,82.463s-7.769,58.674.237,84.777C144.758,252.838,160.342,273.193,179.342,281.911Z" transform="translate(-87.201 -28.649)" fill="#f8f8f8"/><path d="M707.7,190.929c-2.914-1-12.45-13.612-12.45-28.581,0-17.392,18.4-50.311,20.145-62.039,1.113-7.459,6.136-73.169,44.277-73.169,20.8,0,22.533,40.664,22.533,58.852,0,42.486-61.777,78.676-61.777,100.745A94.408,94.408,0,0,1,707.7,190.929Z" transform="translate(-452.593 -17.676)" fill="#74d5de"/><path d="M744.36,271.824c0-34.071,25.426-96.148,47.791-117.994" transform="translate(-484.563 -100.148)" fill="none" stroke="#56cad8" stroke-linecap="round" stroke-miterlimit="10" stroke-width="4"/><path d="M310.172,538.974c-1.948-.579-7.242-7.329-7.242-16.027,0-8.376,2.352-20.592,2.352-31.925,0-6.3-2.352-8.537-2.352-16.038,0-11.954,11.329-15.594,15.3-15.594,5.846,0,8.973,5,8.973,7.651,0,3.7-1.047,6.5-1.047,10.593,0,8,2.792,9,2.5,15.888-.873,20.142-9.235,39.834-16.586,44.3Z" transform="translate(-197.201 -299.061)" fill="#56cad8"/><path d="M112.971,432.318c2.387-2.059-10.98-67.187-22.575-78.711C77.783,341.08,67.413,334.448,63.99,330.337c-6.073-7.291-9.94-34.787-36.672-34.787-7.071,0-23.733,5.846-26.732,30.588-.981,8.122-2.764,20.547,14.139,38.553,11.385,12.132,25.625,7.954,39.544,21.1,10.02,9.462,8.617,23.733,17.975,35.792C79.73,431.215,99.167,444.209,112.971,432.318Z" transform="translate(0 -192.405)" fill="#74d5de"/><path d="M179.632,504.1c0-16.345-51.561-90.114-72.192-100.665" transform="translate(-69.941 -262.639)" fill="none" stroke="#56cad8" stroke-linecap="round" stroke-miterlimit="10" stroke-width="4"/><path d="M322.208,596.429c-.513-3.874-2.677-36.787,3.455-48.779" transform="translate(-209.237 -356.516)" fill="none" stroke="#74d5de" stroke-linecap="round" stroke-linejoin="round" stroke-width="4"/><path d="M207,566.794C222.43,544.76,360.269,469.588,443.075,455.7" transform="translate(-134.752 -296.659)" fill="none" stroke="#6d6d6d" stroke-linecap="round" stroke-miterlimit="10" stroke-width="3"/><rect width="41.858" height="77.825" rx="12" transform="translate(153.81 39.407)" fill="#fd8369"/><path d="M405.041,697.176v9.075H380.4v-3.839l15.266-7.012Z" transform="translate(-247.632 -452.698)" fill="#333"/><path d="M565.814,675.56c1.246,2.792,4.188,10.027,4.188,10.027l-12.3,7.731H546.565l-1.305-4.272,14-10.712Z" transform="translate(-354.952 -439.783)" fill="#333"/><ellipse cx="10.39" cy="13.102" rx="10.39" ry="13.102" transform="translate(157.88 11.464)" fill="#de8e68"/><path d="M384.376,1.188c-1.361-1.871-5.2-1.448-8.582.984a11.81,11.81,0,0,0-3.2,3.375.936.936,0,0,0-.349-.08c-1.64,0-28.909,14.586-28.651,21.315S353,44.3,356.2,46.372c0,0,14.411-6.729,13.636-8.89s-9.074-9.075-10.53-10.443c1.71-.893,15.4-14.456,16.945-15.992a11.6,11.6,0,0,0,4.485-2.028C384.1,6.584,385.741,3.08,384.376,1.188Z" transform="translate(-223.673 -0.023)" fill="#de8e68"/><path d="M395.945,121.411c3.141-2.527-2.059-23.716-7.633-24.236s-15.294,9.982-14.9,12.963S388.008,127.763,395.945,121.411Z" transform="translate(-243.074 -63.255)" fill="#fcc486"/><path d="M402.27,301.263c0,3.49,1.745,124.252,4.886,134.722,2.792,1.4,10.122,1.745,12.565.7s18.034-133.508,18.034-139.322S402.27,301.263,402.27,301.263Z" transform="translate(-261.869 -192.377)" fill="#56cad8"/><path d="M488.1,432.785c-3.333-5.235-46.734-106.9-50.137-131.965,3.563-2.761,30.082-7.162,32.229-2.15S498.11,427.6,497.227,429.2,490.6,433.323,488.1,432.785Z" transform="translate(-285.102 -192.949)" fill="#74d5de"/><path d="M424.421,119c22.512,0,21.116,62.3,16.229,66.14s-43.1,4.014-45.547,1.222S386.887,119,424.421,119Z" transform="translate(-256.004 -77.475)" fill="#fed385"/><path d="M467.959,25.834c0-2.656-2.537-4.572-2.537-6.045s.869-4.111-1.075-6c-2.363-2.293-6.129-1.337-9.5-1.337-3.169,0-4.918-3.682-9.242-3.682-2.883,0-2.516,3.742-3.595,4.67-.8.7-7.029,2.038-7.029,4.886,0,3.183.084,7.455,6.694,7.455a15.3,15.3,0,0,1,3.979-6.38c.97.419,6.282,2.611,7.6,3s3.239,6.021,5.277,6.7,2.167,4.433,3.658,4.272S467.959,32.584,467.959,25.834Z" transform="translate(-283.163 -5.717)" fill="#fd8369"/><ellipse cx="2.747" cy="2.747" rx="2.747" ry="2.747" transform="translate(174.469 22.853)" fill="#de8e68"/><path d="M479.289,100.744c-.44,1.518-9.671-.325-9.493-2.042l1.578-15.252L482.5,85.844S479.735,99.233,479.289,100.744Z" transform="translate(-305.825 -54.332)" fill="#de8e68"/><line x1="39.038" y2="193.522" transform="translate(197.305 54.593)" fill="none" stroke="#333" stroke-linecap="round" stroke-miterlimit="10" stroke-width="7"/><path d="M580.022,232.787a7.116,7.116,0,0,0-3.839-2.007c-4.656-7.514-20.477-30.676-27.454-39.09a105.029,105.029,0,0,0-11.169,9.93c2.565,2.876,21.779,25.608,32,34.522a6.949,6.949,0,0,0,2.094,5.015c2.586,2.59,6.558,2.813,8.869.506S582.608,235.377,580.022,232.787Z" transform="translate(-349.94 -124.794)" fill="#de8e68"/><path d="M502.921,145.255c9.029-6.712,23.915,9.518,23.671,13.786s-11.685,13.734-15.6,13.744C506.216,172.793,495.236,150.969,502.921,145.255Z" transform="translate(-325.663 -93.521)" fill="#fed892"/></g></g></g></svg>