<?xml version="1.0" encoding="iso-8859-1"?>
<!-- Generator: Adobe Illustrator 19.0.0, SVG Export Plug-In . SVG Version: 6.00 Build 0)  -->
<svg version="1.1" id="Capa_1" xmlns="http://www.w3.org/2000/svg" xmlns:xlink="http://www.w3.org/1999/xlink" x="0px" y="0px"
	 viewBox="0 0 512 512" style="enable-background:new 0 0 512 512;" xml:space="preserve">
<g>
	<g>
		<path d="M256,0C114.848,0,0,114.848,0,256s114.848,256,256,256s256-114.848,256-256S397.152,0,256,0z M112,192
			c0-26.464,21.536-48,48-48s48,21.536,48,48s-21.536,48-48,48S112,218.464,112,192z M369.12,369.12
			C338.912,399.328,298.752,416,256,416s-82.912-16.672-113.152-46.88c-6.24-6.24-6.24-16.384,0-22.624
			c6.24-6.24,16.384-6.24,22.624,0c48.352,48.384,132.64,48.384,181.024,0c6.24-6.24,16.384-6.24,22.624,0
			S375.36,362.88,369.12,369.12z M352,240c-26.464,0-48-21.536-48-48s21.536-48,48-48s48,21.536,48,48S378.464,240,352,240z"/>
	</g>
</g>
<g>
</g>
<g>
</g>
<g>
</g>
<g>
</g>
<g>
</g>
<g>
</g>
<g>
</g>
<g>
</g>
<g>
</g>
<g>
</g>
<g>
</g>
<g>
</g>
<g>
</g>
<g>
</g>
<g>
</g>
</svg>
