<svg xmlns="http://www.w3.org/2000/svg" width="950.28" height="667.35" viewBox="0 0 950.28 667.35">
  <g id="Layer_2" data-name="Layer 2" transform="translate(0 4)">
    <g id="vector">
      <path id="Path_244" data-name="Path 244" d="M66.79,437.8c-6.19,0-7.69-6.75-15.48-6.75-4.85,0-15,2.76-15,7.49h0l5.11,35.77H69.67l5.88-39.54C74.83,437,71.56,437.8,66.79,437.8Z" fill="#ffe4ad"/>
      <path id="Path_245" data-name="Path 245" d="M835.1,662.16c12.18-18,17.26-32.31,17.26-37.95,0-55.8-188.67-115.37-378-126.31C474.33,469.83,338.91,283,259.51,283c-56.48,0-95.22,36-95.22,119,0,105.08,41.44,193.93,100.51,260.16Z" fill="#e0e0e0"/>
      <path id="Path_246" data-name="Path 246" d="M832,455.09c7.68,0,11.74-73.59,11.74-81.71s-17.56-85-70.79-85c-20.07,0-34.33,20.94-34.33,47.12,0,36.21,49.37,63.11,57,71.26C808.77,420.77,815.75,455.09,832,455.09Z" fill="#fd8369"/>
      <path id="Path_247" data-name="Path 247" d="M841.65,491.53c-4.76,0-17.66-35.7-17.66-65.2,0-34.38,31.35-76.45,35.55-91.63,7.43-26.92,19.67-79.46,57-79.46,21.2,0,33.74,23.28,33.74,47.46,0,23.28-22.7,43.43-43.12,66.57-20,22.68-17.69,41.8-28.82,69.55C866.94,467.17,848.31,491.53,841.65,491.53Z" fill="#ffd98e"/>
      <path id="Path_248" data-name="Path 248" d="M841.19,483.88c-6.91-40.79,36.84-162.83,70.07-197" fill="none" stroke="#fd8369" stroke-linecap="round" stroke-linejoin="round" stroke-width="2.38"/>
      <path id="Path_249" data-name="Path 249" d="M783.75,317.51c6.69,5.52,45.67,70.49,48.58,101.8" fill="none" stroke="#ffd98e" stroke-linecap="round" stroke-linejoin="round" stroke-width="2.38"/>
      <path id="Path_250" data-name="Path 250" d="M844.14,476.31H897.6L870.87,662.16H816.68L789.96,476.31h53.45" fill="#c9c9c9"/>
      <path id="Path_251" data-name="Path 251" d="M393.45,243.63c0,84.88,26,84.47,26,96.8,0,24.23-12.11,21.4-12.11,21.4S282.61,349.67,393.45,243.63Z"/>
      <line id="Line_13" data-name="Line 13" y1="77.5" transform="translate(481.89 -2.81)" opacity="0" stroke="#c4c4c4" stroke-linecap="round" stroke-linejoin="round" stroke-width="2.38" fill="none"/>
      <path id="Path_252" data-name="Path 252" d="M848.25,575.15c-6.51-11.34-242-83.89-269.14-85-51-8.64-84.57,19.21-96.93,43.5,47.49,10.67,104,26.28,118.39,32.21h3.52c2-.11,4.27-.13,6.88-.06,17.91-.21,32.85-.63,40.91-1.11,24.46,9.12,183.78,44.37,187.7,42.24S851.14,580.17,848.25,575.15Z" fill="#5fc5d1"/>
      <path id="Path_253" data-name="Path 253" d="M421.28,523c14.46.68,43.53,6.48,74.3,13.71,18.78-18.27,32.93-43.2,31.57-73-29-66.84-145-153.25-193.5-153.21-7.29,6-8.89,49.73-14.42,75.2-2,9.34,7.57,36.34,22,66.93C374.29,477.69,406,506.44,421.28,523Z" fill="#ffd98e"/>
      <path id="Path_254" data-name="Path 254" d="M844.95,582.15l20.67,5.31-6.36,20.81-20.49-3.69Z" fill="#e49d75"/>
      <path id="Path_255" data-name="Path 255" d="M365.08,297.74c-.38,4.84-.13,25.08,2.29,34.88C360.5,332.5,319.5,294.81,365.08,297.74Z" fill="#e49d75"/>
      <ellipse id="Ellipse_16" data-name="Ellipse 16" cx="36.25" cy="47.5" rx="36.25" ry="47.5" transform="translate(319.23 207.79)" fill="#e49d75"/>
      <path id="Path_256" data-name="Path 256" d="M353.23,194.79c-47.26,0-66,68.41-66,106,0,33.69,12.65,42.71,18.42,45.47s20.33,3.27,29.62,5.52c11.9,2.89,18.36,13.81,29.36,13.81,8.54,0,13.57-8.29,13.57-15,0-27.19-45.49-50-45.49-90.46,8.72-3,41.36-26.77,41.36-36.23,0,6.42,16.7,23.86,19.52,25.1C394.83,244.91,388,194.79,353.23,194.79Z"/>
      <rect id="Rectangle_9" data-name="Rectangle 9" width="52.78" height="94.23" transform="translate(482.172 375.731) rotate(3.29)" fill="#e0e0e0"/>
      <path id="Path_257" data-name="Path 257" d="M577.79,441.98l-36.07,27.85,5.41-94.08L583.2,347.9Z" fill="#c9c9c9"/>
      <line id="Line_14" data-name="Line 14" x2="52.85" y2="8.16" transform="translate(485.43 369.78)" fill="none" stroke="#d3d3d3" stroke-linecap="round" stroke-linejoin="round" stroke-width="2.38"/>
      <line id="Line_15" data-name="Line 15" x1="25.69" y2="31.72" transform="translate(540.76 346.22)" fill="none" stroke="#d3d3d3" stroke-linecap="round" stroke-linejoin="round" stroke-width="2.38"/>
      <line id="Line_16" data-name="Line 16" x1="30.48" y2="28.08" transform="translate(542.85 349)" fill="none" stroke="#d3d3d3" stroke-linecap="round" stroke-linejoin="round" stroke-width="2.38"/>
      <path id="Path_258" data-name="Path 258" d="M737.35,577.71l10.16,14.93,14.44-8.9-8.57-14.44Z" fill="#e49d75"/>
      <line id="Line_17" data-name="Line 17" x2="200.84" transform="translate(1.19 476.31)" fill="none" stroke="#c4c4c4" stroke-linecap="round" stroke-linejoin="round" stroke-width="2.38"/>
      <line id="Line_18" data-name="Line 18" y2="185.85" transform="translate(101.61 476.31)" fill="none" stroke="#c4c4c4" stroke-linecap="round" stroke-linejoin="round" stroke-width="2.38"/>
      <rect id="Rectangle_10" data-name="Rectangle 10" width="45.74" height="24.98" transform="translate(108.69 449.33)" stroke-width="2.38" stroke="#fd8369" stroke-linecap="round" stroke-linejoin="round" fill="none"/>
      <circle id="Ellipse_17" data-name="Ellipse 17" cx="9.44" cy="9.44" r="9.44" transform="translate(320.27 255.29)" fill="#e49d75"/>
      <path id="Path_261" data-name="Path 261" d="M541.72,469.83l-12.28,3.03,5.41-94.07,12.28-3.04Z" fill="#d3d3d3"/>
      <path id="Path_262" data-name="Path 262" d="M744.65,591.84l7.46,20.63,62.53-15.87-2.38-12.07-50.78-3.62Z"/>
      <path id="Path_263" data-name="Path 263" d="M858.11,607.13l19.81,9.44,33.34-55.24-10.17-6.91-38.68,33.12Z"/>
      <path id="Path_264" data-name="Path 264" d="M641.82,365.59c-48.36,11-131.93,100-173.22,165.08,29.93,6.32,66,15.43,93.35,23.1,41.61-32.38,72-84,76.5-90.16,11.36,23.13,92.08,117.3,98,117.3s15.55-4.2,19.34-11.35C752.39,549.38,667.46,361.93,641.82,365.59Z" fill="#6bd5e1"/>
      <path id="Path_265" data-name="Path 265" d="M369.93,475.52c37.47-3.41,110.19-16.77,116.41-18.09,7.82-1.65,14.92-26.06,8.05-40.51-2.37-4.26-5-4.37-7-3.9s-6.77,18.06-11.64,19-94.89,6.32-102.5,6.66c-1-4.74-10.15-39.08-12.35-41.79S311,418.17,311,418.17a164.5,164.5,0,0,0,7.68,18.16C335.91,448.14,353.72,462,369.93,475.52Z" fill="#e49d75"/>
      <path id="Path_266" data-name="Path 266" d="M304.71,326c15.64-5.54,50.83,14.15,61.31,69.95-6,8.39-39,26.73-58.17,26.46C299.47,415,271.44,337.74,304.71,326Z" fill="#ffe4ad"/>
      <path id="Path_267" data-name="Path 267" d="M78.41,415.5l-8.74,58.81H41.42l-8.4-58.81" fill="none" stroke="#fd8369" stroke-linecap="round" stroke-linejoin="round" stroke-width="2.38"/>
    </g>
  </g>
</svg>
